<?xml version="1.0" standalone="no"?><!-- Generator: Adobe Fireworks CS6, Export SVG Extension by Aaron Beall (http://fireworks.abeall.com) . Version: 0.6.1  --><!DOCTYPE svg PUBLIC "-//W3C//DTD SVG 1.1//EN" "http://www.w3.org/Graphics/SVG/1.1/DTD/svg11.dtd"><svg id="android-Page%201" viewBox="0 0 102 97" style="background-color:#ffffff00" version="1.1"	xmlns="http://www.w3.org/2000/svg" xmlns:xlink="http://www.w3.org/1999/xlink" xml:space="preserve"	x="0px" y="0px" width="102px" height="97px">	<g id="Background">		<path opacity="0.302" d="M 8.3857 61.8788 C -15.9287 79.5251 17.641 87.229 30.6911 90.5579 C 41.4926 93.3131 71.1007 95.2585 74.7826 95.108 C 78.4646 94.9576 106.6909 90.4541 96.1796 61.2515 C 82.516 23.2913 53.0413 -7.4094 37.7496 2.7618 C 22.5168 12.8938 42.1197 37.3963 8.3857 61.8788 Z" fill="#a3d900"/>		<g id="iconfinder_icon-social-android-outline_211599">			<g>				<g>					<path d="M 35.1818 27 L 7.8182 27 L 7.8182 36.55 L 7.8182 47.75 C 7.8182 48.6125 8.4901 49.625 9.333 49.625 L 12.7046 49.625 L 12.7046 56 C 12.7046 57.6625 14.0116 59 15.6364 59 C 17.2611 59 18.5682 57.6625 18.5682 56 L 18.5682 49.625 L 24.554 49.625 L 24.554 56 C 24.554 56.9375 25.0304 57.775 25.6901 58.325 C 26.1665 58.75 26.8261 59 27.5224 59 C 27.5347 59 27.5591 59 27.5713 59 C 27.5835 59 27.5347 59 27.5469 59 C 29.1716 59 30.4298 57.6625 30.4298 56 L 30.4298 49.625 L 33.9236 49.625 C 34.7787 49.625 35.194 48.6125 35.194 47.7625 L 35.194 36.5625 L 35.194 27 L 35.1818 27 L 35.1818 27 ZM 33.2273 29 L 33.2273 36.5625 L 33.2273 47.625 L 30.4787 47.625 L 28.4631 47.625 L 28.4631 49.5625 L 28.4631 56 C 28.4631 56.55 28.0966 56.9875 27.5713 57 L 27.5713 57 L 27.5591 57 C 27.5469 57 27.5347 57 27.5224 57 C 27.327 57 27.1437 56.925 26.9972 56.8 L 26.9849 56.7875 L 26.9361 56.775 C 26.6918 56.575 26.5207 56.275 26.5207 56 L 26.5207 49.5625 L 26.5207 47.625 L 24.6273 47.625 L 18.6415 47.625 L 16.6136 47.625 L 16.6136 49.5625 L 16.6136 56 C 16.6136 56.55 16.1739 57 15.6364 57 C 15.0989 57 14.6591 56.55 14.6591 56 L 14.6591 49.5625 L 14.6591 47.625 L 12.7656 47.625 L 9.7727 47.625 L 9.7727 36.55 L 9.7727 29 L 33.2273 29 " fill="#8ca5ba"/>					<path d="M 40.0682 25 C 38.4435 25 37.1364 26.3375 37.1364 28 L 37.1364 40 C 37.1364 41.6625 38.4435 43 40.0682 43 C 41.6929 43 43 41.6625 43 40 L 43 28 C 43 26.3375 41.6929 25 40.0682 25 L 40.0682 25 L 40.0682 25 ZM 40.0682 27 C 40.6057 27 41.0454 27.45 41.0454 28 L 41.0454 40 C 41.0454 40.55 40.6057 41 40.0682 41 C 39.5307 41 39.0909 40.55 39.0909 40 L 39.0909 28 C 39.0909 27.45 39.5307 27 40.0682 27 " fill="#8ca5ba"/>					<path d="M 2.9318 25 C 1.3071 25 0 26.3375 0 28 L 0 40 C 0 41.6625 1.3071 43 2.9318 43 C 4.5565 43 5.8636 41.6625 5.8636 40 L 5.8636 28 C 5.8636 26.3375 4.5565 25 2.9318 25 L 2.9318 25 L 2.9318 25 ZM 2.9318 27 C 3.4693 27 3.9091 27.45 3.9091 28 L 3.9091 40 C 3.9091 40.55 3.4693 41 2.9318 41 C 2.3943 41 1.9546 40.55 1.9546 40 L 1.9546 28 C 1.9546 27.45 2.3943 27 2.9318 27 " fill="#8ca5ba"/>				</g>				<path d="M 12.8756 11 C 12.8145 11 12.729 11.025 12.6557 11.1 C 12.5213 11.2 12.448 11.325 12.4969 11.4125 L 14.7324 14.175 C 8.8443 16.7875 7.9648 23.1375 7.8426 25.0125 L 35.1574 25.0125 C 35.023 23.1375 34.1557 16.875 28.2432 14.2125 L 30.5031 11.4375 C 30.552 11.375 30.4787 11.225 30.3443 11.1125 C 30.2588 11.05 30.1611 11.0125 30.1 11.0125 C 30.0634 11.0125 30.0389 11.025 30.0145 11.05 L 27.669 13.8875 C 26.0077 13.2125 23.9798 12.7875 21.4878 12.7875 C 21.4511 12.7875 21.4145 12.7875 21.3656 12.7875 C 18.9224 12.7875 16.919 13.2 15.2821 13.85 L 12.9611 11.0375 C 12.9611 11.0125 12.9244 11 12.8756 11 L 12.8756 11 L 12.8756 11 ZM 21.3778 14.7875 L 21.4878 14.7875 L 21.4878 14.7875 L 21.4878 14.7875 C 23.2224 14.7875 24.8227 15.025 26.2276 15.4875 L 27.4491 16.0375 C 30.9551 17.6125 32.3233 20.7125 32.873 23 L 10.1148 23 C 10.6523 20.675 12.0205 17.55 15.502 16 L 16.7602 15.4375 C 18.1406 15.0125 19.692 14.7875 21.3778 14.7875 " fill="#8ca5ba"/>			</g>			<path d="M 15.4653 20.3625 C 14.5614 20.3625 13.8162 19.6125 13.8162 18.7 C 13.8162 17.7875 14.5491 17.0375 15.4653 17.0375 C 16.3693 17.0375 17.1145 17.7875 17.1145 18.7 C 17.1145 19.6125 16.3815 20.3625 15.4653 20.3625 L 15.4653 20.3625 Z" fill="#8ca5ba"/>			<path d="M 27.4858 20.3625 C 26.5818 20.3625 25.8366 19.6125 25.8366 18.7 C 25.8366 17.7875 26.5696 17.0375 27.4858 17.0375 C 28.3898 17.0375 29.1349 17.7875 29.1349 18.7 C 29.1349 19.6125 28.3898 20.3625 27.4858 20.3625 L 27.4858 20.3625 Z" fill="#8ca5ba"/>		</g>	</g>	<g id="Layer%201">	</g></svg>