<?xml version="1.0" standalone="no"?><!-- Generator: Adobe Fireworks CS6, Export SVG Extension by Aaron Beall (http://fireworks.abeall.com) . Version: 0.6.1  --><!DOCTYPE svg PUBLIC "-//W3C//DTD SVG 1.1//EN" "http://www.w3.org/Graphics/SVG/1.1/DTD/svg11.dtd"><svg id="f-icon-3%20%281%29-Page%201" viewBox="0 0 79 78" style="background-color:#ffffff00" version="1.1"	xmlns="http://www.w3.org/2000/svg" xmlns:xlink="http://www.w3.org/1999/xlink" xml:space="preserve"	x="0px" y="0px" width="79px" height="78px">	<g id="Background">		<path opacity="0.302" d="M 9.5396 51.6288 C -8.93 65.0988 16.57 70.9795 26.4831 73.5205 C 34.688 75.6237 57.1787 77.1086 59.9756 76.9938 C 62.7725 76.879 84.2136 73.4413 76.229 51.1499 C 65.85 22.1736 43.4606 -1.2613 31.8448 6.5027 C 20.2737 14.2369 35.1644 32.9404 9.5396 51.6288 Z" fill="#d9a300"/>		<g id="iconfinder_Streamline-19_185039">			<path d="M 22.5142 10.8676 C 15.5607 10.8676 9.9036 16.4201 9.9036 23.245 C 9.9036 30.07 15.5607 35.6225 22.5142 35.6225 C 29.4676 35.6225 35.1247 30.07 35.1247 23.245 C 35.1247 16.4201 29.4676 10.8676 22.5142 10.8676 L 22.5142 10.8676 ZM 22.5142 37.2729 C 14.6334 37.2729 8.2222 30.9801 8.2222 23.245 C 8.2222 15.5099 14.6334 9.2172 22.5142 9.2172 C 30.3949 9.2172 36.8061 15.5099 36.8061 23.245 C 36.8061 30.9801 30.3949 37.2729 22.5142 37.2729 L 22.5142 37.2729 Z" fill="#86a6bc"/>			<path d="M 22.5142 41.3904 C 17.7776 41.3904 13.0411 39.6204 9.4353 36.0821 L 10.6241 34.9154 C 17.1807 41.3492 27.8476 41.35 34.4026 34.9154 C 40.9584 28.4807 40.9584 18.0102 34.4026 11.5755 L 35.5913 10.4088 C 42.8029 17.487 42.8029 29.0039 35.5913 36.0821 C 31.9864 39.6204 27.2507 41.3904 22.5142 41.3904 L 22.5142 41.3904 Z" fill="#86a6bc"/>			<rect x="20.8327" y="40.5537" width="1.6814" height="3.3419" fill="#86a6bc"/>			<rect x="22.5142" y="40.5537" width="1.6814" height="3.3419" fill="#86a6bc"/>			<path d="M 15.4018 46.3497 L 29.6265 46.3497 C 27.4264 45.2646 25.011 44.6993 22.5142 44.6993 C 20.0173 44.6993 17.6011 45.2646 15.4018 46.3497 L 15.4018 46.3497 ZM 35.0961 48 L 9.9313 48 L 11.9515 46.5147 C 15.0352 44.2471 18.6881 43.049 22.5133 43.049 C 26.3385 43.049 29.9914 44.2471 33.0742 46.5147 L 35.0961 48 L 35.0961 48 Z" fill="#86a6bc"/>			<path d="M 8.8409 37.4907 C 8.6257 37.4907 8.4105 37.4098 8.2465 37.2489 C 7.9178 36.9263 7.9178 36.4048 8.2465 36.0821 L 10.6241 33.7486 C 10.9528 33.4259 11.4841 33.4259 11.8128 33.7486 C 12.1415 34.0712 12.1415 34.5927 11.8128 34.9154 L 9.4353 37.2489 C 9.2714 37.4098 9.0561 37.4907 8.8409 37.4907 L 8.8409 37.4907 Z" fill="#86a6bc"/>			<path d="M 33.8082 12.9841 C 33.593 12.9841 33.3777 12.9032 33.2138 12.7423 C 32.8851 12.4197 32.8851 11.8982 33.2138 11.5755 L 35.5913 9.242 C 35.92 8.9193 36.4514 8.9193 36.7801 9.242 C 37.1088 9.5646 37.1088 10.0861 36.7801 10.4088 L 34.4026 12.7423 C 34.2386 12.9041 34.0234 12.9841 33.8082 12.9841 L 33.8082 12.9841 Z" fill="#86a6bc"/>		</g>	</g>	<g id="Layer%201">	</g></svg>