<?xml version="1.0" standalone="no"?><!-- Generator: Adobe Fireworks CS6, Export SVG Extension by Aaron Beall (http://fireworks.abeall.com) . Version: 0.6.1  --><!DOCTYPE svg PUBLIC "-//W3C//DTD SVG 1.1//EN" "http://www.w3.org/Graphics/SVG/1.1/DTD/svg11.dtd"><svg id="html5-Page%201" viewBox="0 0 102 97" style="background-color:#ffffff00" version="1.1"	xmlns="http://www.w3.org/2000/svg" xmlns:xlink="http://www.w3.org/1999/xlink" xml:space="preserve"	x="0px" y="0px" width="102px" height="97px">	<g id="Background">		<path opacity="0.302" d="M 8.3857 34.0305 C -15.9287 16.3842 17.641 8.6803 30.6911 5.3514 C 41.4926 2.5962 71.1007 0.6509 74.7826 0.8013 C 78.4646 0.9517 106.6909 5.4552 96.1796 34.6578 C 82.516 72.618 53.0413 103.3187 37.7496 93.1475 C 22.5168 83.0155 42.1197 58.5131 8.3857 34.0305 Z" fill="#dc73ff"/>		<path d="M 32.0761 52.966 L 17.7164 52.966 L 18.0353 56.8128 L 31.7573 56.8128 L 30.691 68.3722 L 23.0421 70.4761 L 23.0421 70.4978 L 22.9573 70.4978 L 15.244 68.3722 L 14.7753 62.4647 L 18.5041 62.4647 L 18.7808 65.44 L 22.9573 66.5664 L 27.1542 65.44 L 27.6235 60.5953 L 14.5839 60.5953 L 13.5827 49.2477 L 32.4174 49.2477 L 32.0761 52.966 ZM 8 43 L 10.7275 73.5578 L 22.9573 77 L 35.2725 73.5578 L 38 43 L 8 43 Z" fill="#86a6bc"/>	</g>	<g id="Layer%201">	</g></svg>