<?xml version="1.0" standalone="no"?><!-- Generator: Adobe Fireworks CS6, Export SVG Extension by Aaron Beall (http://fireworks.abeall.com) . Version: 0.6.1  --><!DOCTYPE svg PUBLIC "-//W3C//DTD SVG 1.1//EN" "http://www.w3.org/Graphics/SVG/1.1/DTD/svg11.dtd"><svg id="ios-Page%201" viewBox="0 0 102 97" style="background-color:#ffffff00" version="1.1"	xmlns="http://www.w3.org/2000/svg" xmlns:xlink="http://www.w3.org/1999/xlink" xml:space="preserve"	x="0px" y="0px" width="102px" height="97px">	<g id="Background">		<path opacity="0.302" d="M 50.5 12 C 60.25 -16.25 77.303 13.5223 84.25 25 C 90 34.5 100.4259 62.1548 101.3491 65.7068 C 102.2723 69.2588 106.1614 97.4532 75.3289 95.843 C 35.25 93.75 -2.5 74.5 2.75 57 C 7.9798 39.5673 36.9728 51.1943 50.5 12 Z" fill="#ff7556"/>		<path d="M 42.3684 29.6087 C 42.4077 25.6875 44.5091 22.0788 47.8947 20.1183 C 45.6068 17.6654 42.4013 16.2827 39.0526 16.3043 C 35.0737 16.3043 33.3716 18.5217 29.1053 18.5217 C 24.8389 18.5217 23.1368 16.3043 19.1579 16.3043 C 15.1789 16.3043 7 18.5217 7 30.7174 C 7 42.913 15.2895 54 19.1579 54 C 24.2863 54 25.3253 51.7826 29.1053 51.7826 C 32.8853 51.7826 33.9242 54 39.0526 54 C 41.9042 54 46.4137 47.5696 49 39.587 C 44.9581 37.9405 42.329 33.9845 42.3684 29.6087 ZM 29.1053 14.087 C 34.3345 13.0174 38.055 8.3523 37.9474 3 C 32.7181 4.0696 28.9977 8.7346 29.1053 14.087 Z" stroke="#8ca5ba" stroke-width="2" fill="none"/>	</g>	<g id="Layer%201">	</g></svg>