<?xml version="1.0" standalone="no"?><!-- Generator: Adobe Fireworks CS6, Export SVG Extension by Aaron Beall (http://fireworks.abeall.com) . Version: 0.6.1  --><!DOCTYPE svg PUBLIC "-//W3C//DTD SVG 1.1//EN" "http://www.w3.org/Graphics/SVG/1.1/DTD/svg11.dtd"><svg id="iot-Page%201" viewBox="0 0 102 97" style="background-color:#ffffff00" version="1.1"	xmlns="http://www.w3.org/2000/svg" xmlns:xlink="http://www.w3.org/1999/xlink" xml:space="preserve"	x="0px" y="0px" width="102px" height="97px">	<g id="Background">		<path opacity="0.302" d="M 87.5422 34.7712 C 111.4295 17.3724 78.4494 9.7765 65.6286 6.4944 C 55.0168 3.7778 25.9288 1.8597 22.3116 2.008 C 18.6943 2.1563 -9.0362 6.5967 1.2905 35.3897 C 14.714 72.8174 43.671 103.0875 58.6941 93.059 C 73.6593 83.069 54.4007 58.9103 87.5422 34.7712 Z" fill="#ffbf00"/>		<path id="iconfinder_tech_0001_4160443" d="M 73.9928 57.2926 C 73.0977 57.2929 72.3549 57.5977 71.7216 58.2246 C 71.5255 58.4257 71.3546 58.6502 71.2209 58.8854 C 70.9368 59.3681 70.7994 59.8915 70.7974 60.4916 C 70.7995 61.0954 70.9382 61.6221 71.222 62.0983 C 71.3597 62.3361 71.5284 62.5574 71.728 62.7612 C 72.3546 63.3869 73.0942 63.6933 73.9848 63.6933 C 73.9894 63.6933 73.994 63.6933 73.9989 63.6933 C 74.8904 63.6933 75.6248 63.3878 76.2463 62.759 C 76.4561 62.5492 76.6317 62.3256 76.7697 62.0923 C 77.0485 61.6187 77.1834 61.0943 77.1817 60.4912 C 77.1836 59.8919 77.05 59.3713 76.7744 58.8963 C 76.6366 58.6611 76.4593 58.4335 76.2479 58.2217 C 75.6242 57.5969 74.8866 57.2929 73.9928 57.2926 L 73.9928 57.2926 ZM 74.001 64.7983 C 73.9949 64.7983 73.9888 64.7983 73.9828 64.7983 C 72.8042 64.7983 71.782 64.3749 70.9455 63.5395 C 70.6767 63.2646 70.4519 62.9695 70.2722 62.6583 C 69.8932 62.0231 69.6982 61.2919 69.6954 60.4916 C 69.6982 59.6973 69.8907 58.9713 70.268 58.3309 C 70.4442 58.0207 70.6721 57.7205 70.9405 57.4451 C 71.7856 56.609 72.8103 56.1881 73.9928 56.1879 L 73.9928 56.1879 C 75.1772 56.1881 76.1977 56.6099 77.0269 57.4408 C 77.3047 57.7188 77.5395 58.021 77.7255 58.339 C 78.0984 58.9807 78.2858 59.7044 78.2835 60.4912 C 78.2858 61.2841 78.0955 62.013 77.7184 62.6554 C 77.5318 62.9696 77.2997 63.2663 77.0264 63.5393 C 76.2013 64.374 75.1825 64.7983 74.001 64.7983 L 74.001 64.7983 ZM 73.9928 45.5059 C 73.9969 45.5062 73.9986 45.5059 74.001 45.5059 C 74.8904 45.5059 75.6248 45.2 76.2463 44.5715 C 76.458 44.3617 76.632 44.14 76.7676 43.9086 C 76.7682 43.9075 76.7687 43.9066 76.7694 43.9059 C 77.0485 43.4328 77.1836 42.9108 77.1819 42.3104 C 77.1835 41.4147 76.878 40.6729 76.2481 40.0408 C 75.6237 39.4134 74.8858 39.1073 73.9918 39.105 C 73.0993 39.1071 72.3559 39.4139 71.7226 40.0429 C 71.1017 40.6718 70.7977 41.4141 70.7977 42.3091 C 70.7998 42.9091 70.9366 43.4322 71.2164 43.9053 C 71.2166 43.9053 71.2166 43.9056 71.2169 43.9059 L 71.2169 43.9059 C 71.2183 43.9084 71.2194 43.9109 71.2209 43.9129 C 71.354 44.1454 71.5241 44.3671 71.7263 44.5715 C 72.3548 45.1995 73.0946 45.5059 73.985 45.5059 C 73.9875 45.5059 73.9901 45.5062 73.9928 45.5059 L 73.9928 45.5059 L 73.9928 45.5059 ZM 86.9415 53.0103 C 87.074 53.2379 87.2433 53.4547 87.4451 53.6549 C 88.0767 54.2898 88.8145 54.5982 89.7028 54.5997 C 90.6016 54.5994 91.3385 54.2913 91.9615 53.6593 C 92.5947 53.0319 92.8991 52.2957 92.8977 51.4037 C 92.8977 51.4032 92.8977 51.4027 92.8977 51.4018 C 92.8993 50.5057 92.5936 49.7616 91.9631 49.1272 C 91.3403 48.503 90.6023 48.1991 89.7086 48.1988 C 88.8166 48.1991 88.0762 48.5037 87.4452 49.13 C 87.244 49.3341 87.0712 49.5586 86.936 49.7927 C 86.9352 49.794 86.9344 49.7956 86.9335 49.7972 C 86.6532 50.2769 86.5158 50.8025 86.5136 51.4049 C 86.5157 52.0052 86.6544 52.5297 86.9379 53.0038 C 86.9391 53.0059 86.9405 53.008 86.9415 53.0103 L 86.9415 53.0103 ZM 58.2904 48.1988 C 57.3981 48.1991 56.6573 48.5037 56.0267 49.13 C 55.406 49.7606 55.102 50.5056 55.1018 51.4034 C 55.1021 52.2962 55.405 53.0335 56.0279 53.6562 C 56.6595 54.2912 57.3994 54.5996 58.2905 54.5999 C 59.1826 54.5996 59.9198 54.2919 60.5433 53.6595 C 60.7532 53.4512 60.9259 53.233 61.0609 53.0055 C 61.0609 53.0053 61.0609 53.0053 61.0609 53.0053 C 61.0609 53.005 61.0609 53.005 61.0612 53.005 C 61.345 52.528 61.4838 52.0035 61.4861 51.4008 C 61.484 50.8039 61.3452 50.2792 61.0615 49.801 C 61.0599 49.7984 61.0584 49.7958 61.0567 49.7935 C 60.9224 49.5594 60.7497 49.3347 60.5439 49.1262 C 59.9218 48.5031 59.1839 48.1991 58.2904 48.1988 L 58.2904 48.1988 ZM 78.8951 53.7228 C 79.8066 53.7246 80.5936 54.0532 81.2362 54.7005 C 81.4422 54.9065 81.617 55.1298 81.7585 55.3676 L 85.7384 53.0697 C 85.5231 52.5584 85.4134 52.0006 85.4116 51.4048 C 85.4135 50.8082 85.5221 50.2503 85.7352 49.7369 L 77.4095 44.9212 C 77.2927 45.0705 77.164 45.2153 77.0248 45.3531 C 76.3303 46.056 75.4967 46.4677 74.5439 46.5793 L 74.5439 51.877 C 75.3149 52.1713 76.0214 52.6362 76.6475 53.2627 C 76.9097 53.5286 77.1437 53.8084 77.3476 54.0996 C 77.8141 53.8507 78.3322 53.7245 78.8951 53.7228 L 78.8951 53.7228 ZM 62.2604 53.0696 L 66.5968 55.5732 C 66.8884 54.7198 67.3782 53.9457 68.0592 53.2632 C 69.2378 52.0834 70.6795 51.4858 72.3445 51.4858 C 72.721 51.4962 73.0873 51.5158 73.4417 51.5764 L 73.4417 46.5794 C 72.4882 46.4678 71.6508 46.0561 70.9454 45.3516 C 70.8098 45.2148 70.6853 45.0718 70.5717 44.9236 L 62.2597 49.7356 C 62.4756 50.2488 62.5855 50.8065 62.5877 51.4008 C 62.5857 51.9988 62.476 52.5571 62.2604 53.0696 L 62.2604 53.0696 ZM 64.7018 65.6387 C 65.3564 66.1216 66.0862 66.366 66.9338 66.3867 L 67.1456 66.3809 C 67.1577 66.3798 67.1784 66.3809 67.1822 66.3795 L 80.8869 66.3863 C 81.7907 66.3847 82.5656 66.1343 83.2535 65.6199 C 83.2584 65.6161 83.2633 65.6124 83.2683 65.6088 C 83.4216 65.4899 83.5776 65.3515 83.7267 65.2021 C 84.5181 64.4097 84.9024 63.4807 84.9018 62.3608 C 84.9024 61.2382 84.518 60.3066 83.727 59.5125 C 83.0767 58.8619 82.3401 58.4885 81.4745 58.3715 C 81.3161 58.3501 81.1747 58.2608 81.087 58.127 C 80.9993 57.9928 80.9741 57.8274 81.0176 57.6734 C 81.0732 57.4783 81.1005 57.267 81.1002 57.0449 C 81.1005 56.7861 81.0639 56.5432 80.991 56.3215 C 80.8869 56.0108 80.712 55.7361 80.4563 55.481 C 80.0203 55.0415 79.51 54.8283 78.8954 54.8271 C 78.3688 54.8288 77.92 54.983 77.526 55.2998 C 77.3995 55.4009 77.2349 55.441 77.0767 55.411 C 76.918 55.3801 76.7808 55.281 76.7013 55.1398 C 76.4838 54.7524 76.2029 54.383 75.8665 54.0415 C 75.2684 53.4437 74.5839 53.0255 73.8348 52.8015 C 73.8337 52.8015 73.8327 52.801 73.8316 52.8005 C 73.3723 52.6607 72.8747 52.59 72.3532 52.59 C 72.3503 52.59 72.3475 52.59 72.3449 52.59 C 70.9622 52.59 69.8155 53.0659 68.8376 54.0444 C 68.1169 54.7667 67.6733 55.5722 67.4825 56.5059 C 67.481 56.5135 67.4798 56.5206 67.4781 56.528 C 67.4135 56.8578 67.3807 57.2085 67.3807 57.5685 C 67.3796 57.6449 67.3796 57.7138 67.3807 57.7823 C 67.3845 58.0824 67.1494 58.3306 66.8505 58.3415 C 65.8123 58.3807 64.9439 58.764 64.1954 59.5129 C 63.4049 60.3065 63.0208 61.2381 63.0211 62.3604 C 63.0208 63.4806 63.405 64.4096 64.1957 65.2015 C 64.3515 65.358 64.5151 65.5001 64.6818 65.6241 C 64.6889 65.6291 64.6956 65.634 64.7018 65.6387 L 64.7018 65.6387 ZM 84.53 65.9592 L 86.2915 66.9782 C 86.4056 66.8307 86.5304 66.688 86.6655 66.5512 C 87.3706 65.8511 88.2037 65.4421 89.1512 65.3285 L 89.1512 55.6716 C 88.2025 55.5566 87.3692 55.143 86.6672 54.4378 C 86.5342 54.3055 86.4108 54.1664 86.2978 54.0219 L 82.1481 56.4175 C 82.1843 56.6204 82.2021 56.8302 82.2018 57.0452 C 82.2021 57.1605 82.1967 57.2744 82.1866 57.3864 C 83.0545 57.6072 83.8328 58.058 84.5058 58.7318 C 85.5002 59.7298 86.0041 60.9507 86.0035 62.3612 C 86.0043 63.7577 85.5084 64.9683 84.53 65.9592 L 84.53 65.9592 ZM 58.8414 65.3275 C 59.7932 65.4397 60.6267 65.8491 61.3245 66.5483 C 61.4623 66.6875 61.5887 66.8326 61.704 66.9826 L 63.4204 65.9861 C 63.4193 65.9849 63.4183 65.984 63.4172 65.9829 C 62.4237 64.9879 61.9198 63.7691 61.9201 62.3609 C 61.9198 60.9507 62.4234 59.7298 63.4172 58.7324 C 64.2304 57.9182 65.1935 57.4323 66.2855 57.2833 C 66.2935 57.0859 66.3102 56.89 66.3355 56.6968 L 61.6986 54.02 C 61.5841 54.1651 61.4585 54.3056 61.3227 54.4402 C 60.6284 55.1447 59.7945 55.5585 58.8417 55.6723 L 58.8414 65.3275 L 58.8414 65.3275 L 58.8414 65.3275 ZM 58.2904 66.4005 C 57.3981 66.4005 56.6573 66.7055 56.0267 67.3316 C 55.406 67.962 55.102 68.707 55.1018 69.6047 C 55.1021 70.4978 55.405 71.235 56.0279 71.858 C 56.6595 72.4926 57.3994 72.8013 58.2907 72.8015 C 59.1824 72.8013 59.9197 72.4935 60.5432 71.861 C 60.7525 71.6536 60.9247 71.4356 61.0603 71.2083 C 61.0603 71.2077 61.0608 71.2072 61.0611 71.2066 C 61.3449 70.7296 61.4837 70.2052 61.486 69.6021 C 61.4839 69.0055 61.3451 68.4808 61.0608 68.002 C 61.0606 68.0012 61.0603 68.0007 61.0598 68 C 61.0598 67.9997 61.0598 67.9997 61.0598 67.9997 C 61.0595 67.9992 61.0592 67.9989 61.0589 67.9987 C 61.0587 67.9981 61.0589 67.9984 61.0581 67.9973 C 61.0576 67.9965 61.0569 67.9953 61.0564 67.9946 C 61.0564 67.9944 61.0564 67.9944 61.0564 67.9944 C 60.9224 67.7608 60.7497 67.5364 60.5436 67.3276 C 59.9218 66.7047 59.1842 66.4005 58.2904 66.4005 L 58.2904 66.4005 ZM 86.9313 71.192 C 86.9325 71.1941 86.9334 71.196 86.9345 71.198 C 87.0696 71.4305 87.2418 71.6528 87.447 71.8585 C 88.0784 72.4926 88.8182 72.8013 89.7094 72.8015 C 90.6013 72.8013 91.3383 72.4935 91.962 71.861 C 92.5949 71.2336 92.8994 70.4973 92.8979 69.6055 C 92.8995 68.7075 92.5938 67.9634 91.9633 67.329 C 91.3405 66.7048 90.6025 66.4007 89.7088 66.4007 C 89.7071 66.4004 89.7051 66.4004 89.7031 66.4007 C 88.8134 66.4023 88.0746 66.7068 87.4451 67.332 C 87.2439 67.5362 87.0699 67.7601 86.9331 67.9928 C 86.6529 68.4746 86.5157 69.0027 86.5135 69.6064 C 86.5157 70.2003 86.6523 70.7204 86.9313 71.192 L 86.9313 71.192 ZM 62.2604 71.2712 L 70.5719 76.0701 C 70.6846 75.9228 70.8087 75.7805 70.9426 75.6445 C 71.6518 74.9427 72.4895 74.5338 73.4419 74.4213 L 73.4419 67.4907 L 67.1974 67.4845 L 67.0931 67.4907 C 67.0835 67.4912 67.0742 67.4912 67.0646 67.4912 L 66.9199 67.4912 C 65.9646 67.4681 65.1017 67.2115 64.3402 66.7285 L 62.2596 67.9363 C 62.4756 68.4499 62.5857 69.0082 62.5879 69.6021 C 62.5857 70.2 62.476 70.7588 62.2604 71.2712 L 62.2604 71.2712 ZM 74.5438 74.4213 C 75.4959 74.5338 76.3292 74.9429 77.0268 75.6421 C 77.1652 75.7794 77.2932 75.9234 77.4095 76.0724 L 85.7335 71.2574 C 85.5216 70.7498 85.4133 70.1965 85.4116 69.6064 C 85.4135 69.0078 85.5224 68.4476 85.7357 67.9322 L 83.6201 66.7085 C 82.8126 67.2278 81.8962 67.4898 80.8874 67.4915 L 74.5438 67.4915 L 74.5438 74.4213 L 74.5438 74.4213 ZM 71.2166 77.0871 C 70.9365 77.5652 70.7994 78.0903 70.7974 78.693 C 70.7974 79.587 71.1009 80.3271 71.7242 80.9522 C 72.357 81.5863 73.0991 81.8947 73.9931 81.8953 C 74.8851 81.8947 75.6222 81.5872 76.2457 80.9545 C 76.8785 80.3257 77.1832 79.587 77.1817 78.6923 C 77.1836 78.0889 77.0485 77.5646 76.7685 77.0868 L 76.7685 77.0868 C 76.6323 76.855 76.4581 76.6325 76.2497 76.4253 C 75.6242 75.7987 74.8866 75.4947 73.9928 75.4944 C 73.0974 75.4947 72.3549 75.7994 71.7216 76.4261 C 71.5238 76.6267 71.3536 76.8492 71.2199 77.0816 C 71.2187 77.0839 71.2176 77.0854 71.2166 77.0871 L 71.2166 77.0871 ZM 73.9931 83 C 72.8085 82.9994 71.7832 82.5732 70.9449 81.7333 C 70.1163 80.9022 69.6955 79.8783 69.6955 78.6913 C 69.6974 78.0959 69.8059 77.5381 70.0187 77.0257 L 61.6982 72.2217 C 61.5839 72.3669 61.4579 72.5076 61.3224 72.6419 C 60.4974 73.4787 59.4758 73.9059 58.2909 73.9061 C 57.1086 73.9057 56.0851 73.4793 55.249 72.6391 C 54.4208 71.811 54.0002 70.7897 54 69.6043 C 54.0002 68.4181 54.42 67.3907 55.2469 66.5508 C 55.9539 65.8489 56.7895 65.44 57.7398 65.3273 L 57.7398 55.6721 C 56.7886 55.5586 55.9523 55.1442 55.2492 54.4376 C 54.421 53.6095 54.0004 52.5882 54.0002 51.403 C 54.0004 50.2168 54.4202 49.1894 55.2471 48.3492 C 56.0877 47.5151 57.1099 47.094 58.2908 47.0938 C 59.4748 47.094 60.4953 47.5158 61.3249 48.3464 C 61.4627 48.4861 61.5896 48.6312 61.7045 48.7812 L 70.0182 43.9682 C 69.8062 43.4589 69.6975 42.9038 69.6958 42.3104 C 69.6958 41.1247 70.1158 40.0995 70.9434 39.2615 C 71.7851 38.426 72.8092 38.0029 73.9919 38 C 75.1786 38.0029 76.1994 38.4269 77.0278 39.2598 C 77.8635 40.0981 78.286 41.1242 78.284 42.3093 C 78.2859 42.9011 78.1796 43.4573 77.9678 43.9679 L 86.289 48.7816 C 86.4036 48.632 86.5297 48.4876 86.6659 48.3492 C 87.5064 47.5151 88.5286 47.094 89.709 47.0938 C 90.8933 47.094 91.9142 47.5158 92.7434 48.3464 C 93.5793 49.1879 94.0019 50.216 94 51.4023 C 94.0019 52.5886 93.5784 53.6103 92.7412 54.44 C 92.0452 55.1462 91.2096 55.5604 90.2534 55.6727 L 90.2534 65.3267 C 91.2107 65.4389 92.045 65.8484 92.7432 66.5481 C 93.5797 67.3897 94.002 68.4178 93.9998 69.6051 C 94.0019 70.7898 93.5783 71.812 92.741 72.6417 C 91.9162 73.4785 90.8945 73.9057 89.7094 73.9058 C 88.527 73.9055 87.504 73.4791 86.6674 72.6389 C 86.5311 72.502 86.4052 72.359 86.29 72.21 L 77.9663 77.0254 C 78.1788 77.5392 78.2853 78.0976 78.2833 78.6927 C 78.2854 79.8783 77.8622 80.9029 77.0252 81.7347 C 76.1999 82.5728 75.1785 82.9994 73.9931 83 L 73.9931 83 Z" fill="#86a6bc"/>	</g>	<g id="Layer%201">	</g></svg>