<?xml version="1.0" standalone="no"?><!-- Generator: Adobe Fireworks CS6, Export SVG Extension by Aaron Beall (http://fireworks.abeall.com) . Version: 0.6.1  --><!DOCTYPE svg PUBLIC "-//W3C//DTD SVG 1.1//EN" "http://www.w3.org/Graphics/SVG/1.1/DTD/svg11.dtd"><svg id="f-icon-1-Page%201" viewBox="0 0 92 73" style="background-color:#ffffff00" version="1.1"	xmlns="http://www.w3.org/2000/svg" xmlns:xlink="http://www.w3.org/1999/xlink" xml:space="preserve"	x="0px" y="0px" width="92px" height="73px">	<g id="Background">		<path opacity="0.302" d="M 31 30 C 31 30 45.8734 15.9778 52 6 C 58.1266 -3.9778 71.0111 0.1334 74 12 C 76.9889 23.8666 90.2549 46.2891 91 49 C 91.7451 51.7109 94.8332 73.9401 70 72 C 45.1668 70.0599 29.2883 62.3336 26 61 C 22.7117 59.6664 -3.6185 52.0582 15 37 C 15 37 25.9435 34.722 31 30 Z" fill="#ff7556"/>		<g id="iconfinder_Streamline-75_185095">			<path d="M 11.8416 38.8738 C 11.6905 38.8738 11.5417 38.9322 11.4298 39.0453 L 9.5759 40.8997 C 9.3554 41.1197 8.9704 41.1197 8.7505 40.8997 L 7.1002 39.2501 C 6.9918 39.1416 6.9293 38.9911 6.9293 38.8377 C 6.9293 38.6842 6.9918 38.5343 7.1002 38.4253 L 8.9547 36.5703 C 9.1454 36.3789 9.1804 36.0832 9.0398 35.8533 C 8.5352 35.0285 8.1648 34.1343 7.9379 33.1963 C 7.8749 32.9338 7.6404 32.7494 7.3709 32.7494 L 4.75 32.7494 C 4.4286 32.7494 4.1667 32.4881 4.1667 32.1661 L 4.1667 29.8328 C 4.1667 29.6764 4.2273 29.53 4.337 29.4209 C 4.4472 29.3107 4.5943 29.25 4.75 29.25 L 7.3715 29.25 C 7.641 29.25 7.8755 29.0651 7.9385 28.8032 C 8.1648 27.8663 8.5352 26.9721 9.0404 26.1461 C 9.181 25.9163 9.146 25.6193 8.9552 25.4292 L 7.1008 23.5747 C 6.8733 23.3472 6.8733 22.9774 7.1008 22.7499 L 8.7499 21.1003 C 8.9704 20.8803 9.3548 20.8803 9.5753 21.1003 L 11.4298 22.9547 C 11.6199 23.1454 11.9157 23.1804 12.1461 23.0398 C 12.9727 22.5347 13.8669 22.1642 14.8038 21.9379 C 15.0657 21.8743 15.25 21.6404 15.25 21.3709 L 15.25 18.75 C 15.25 18.428 15.5119 18.1667 15.8333 18.1667 L 18.1667 18.1667 C 18.4881 18.1667 18.75 18.428 18.75 18.75 L 18.75 21.3709 C 18.75 21.6404 18.9349 21.8743 19.1962 21.9368 C 20.1348 22.1637 21.0285 22.5347 21.8528 23.0387 C 22.0837 23.1804 22.3795 23.1448 22.5697 22.9535 L 24.4241 21.0991 C 24.6446 20.8792 25.029 20.8792 25.2495 21.0991 L 26.8997 22.7487 C 27.0082 22.8573 27.0707 23.0077 27.0707 23.1612 C 27.0707 23.3146 27.0082 23.4645 26.8997 23.5736 L 25.0453 25.428 C 24.8546 25.6193 24.8196 25.9151 24.9602 26.1449 C 25.4653 26.9709 25.8358 27.8652 26.0621 28.8026 C 26.1251 29.0651 26.3596 29.2494 26.6291 29.2494 L 29.25 29.2494 C 29.5714 29.2494 29.8333 29.5107 29.8333 29.8328 L 29.8333 32.1661 C 29.8333 32.3224 29.7727 32.4688 29.663 32.5773 C 29.5527 32.6876 29.4057 32.7483 29.25 32.7483 L 26.6291 32.7483 C 26.3596 32.7483 26.1251 32.9332 26.0621 33.1951 C 25.8352 34.1337 25.4648 35.0279 24.9602 35.8527 C 24.8196 36.0826 24.8546 36.3795 25.0453 36.5697 L 26.8997 38.4241 C 27.1273 38.6516 27.1273 39.0214 26.8997 39.2489 L 25.2501 40.8992 C 25.0307 41.1185 24.6434 41.1173 24.4247 40.8992 L 22.5708 39.0448 C 22.3801 38.8546 22.0849 38.819 21.8539 38.9596 C 21.0273 39.4653 20.1331 39.8352 19.1962 40.0621 C 18.9343 40.1257 18.75 40.3596 18.75 40.6291 L 18.75 43.25 C 18.75 43.572 18.4881 43.8333 18.1667 43.8333 L 15.8333 43.8333 C 15.5119 43.8333 15.25 43.572 15.25 43.25 L 15.25 40.6291 C 15.25 40.3596 15.0657 40.1257 14.8038 40.0621 C 13.8657 39.8352 12.9715 39.4642 12.1455 38.959 C 12.0516 38.9018 11.946 38.8738 11.8416 38.8738 ZM 18.1667 45 C 19.1321 45 19.9167 44.2148 19.9172 43.25 L 19.9172 41.0777 C 20.6628 40.8618 21.382 40.5643 22.0633 40.1875 L 23.5993 41.7246 C 24.2607 42.3855 25.4128 42.3855 26.0743 41.7246 L 27.724 40.0743 C 28.4065 39.3918 28.4065 38.2823 27.724 37.5998 L 26.1875 36.0628 C 26.5638 35.382 26.8618 34.6628 27.0777 33.9161 L 29.25 33.9161 C 29.7178 33.9161 30.1577 33.7335 30.4878 33.4033 C 30.818 33.0732 31 32.6339 31 32.1661 L 31 29.8328 C 31 28.8679 30.2148 28.0828 29.25 28.0828 L 27.0783 28.0828 C 26.863 27.3361 26.5649 26.6174 26.1881 25.9361 L 27.7246 24.399 C 28.0553 24.0688 28.2373 23.629 28.2373 23.1618 C 28.2373 22.6945 28.0553 22.2547 27.7246 21.9245 L 26.0743 20.2748 C 25.4128 19.6133 24.2607 19.6145 23.5993 20.2748 L 22.0622 21.8119 C 21.382 21.4362 20.6633 21.1382 19.9167 20.9223 L 19.9167 18.75 C 19.9167 17.7852 19.1315 17 18.1667 17 L 15.8333 17 C 14.8685 17 14.0833 17.7852 14.0833 18.75 L 14.0833 20.9223 C 13.3378 21.1376 12.6192 21.4357 11.9378 21.8119 L 10.4007 20.2748 C 9.7393 19.6133 8.5866 19.6145 7.9257 20.2748 L 6.276 21.9251 C 5.5935 22.6076 5.5935 23.7171 6.276 24.3996 L 7.8125 25.9367 C 7.4357 26.618 7.1382 27.3372 6.9223 28.0828 L 4.75 28.0828 C 4.2822 28.0828 3.8429 28.2653 3.5122 28.5955 C 3.182 28.9257 3 29.3649 3 29.8328 L 3 32.1661 C 3 33.1309 3.7852 33.9161 4.75 33.9161 L 6.9217 33.9161 C 7.137 34.6633 7.4351 35.382 7.8113 36.0622 L 6.2742 37.5998 C 5.9435 37.93 5.7615 38.3698 5.7615 38.8371 C 5.7615 39.3043 5.9435 39.7442 6.2742 40.0743 L 7.9245 41.724 C 8.586 42.3843 9.7381 42.3855 10.3996 41.724 L 11.9361 40.1869 C 12.618 40.5638 13.3367 40.8618 14.0833 41.0777 L 14.0833 43.25 C 14.0833 44.2148 14.8685 45 15.8333 45 L 18.1667 45 ZM 17 26.3333 C 19.5737 26.3333 21.6667 28.4269 21.6667 31 C 21.6667 33.5731 19.5731 35.6667 17 35.6667 C 14.4269 35.6667 12.3333 33.5731 12.3333 31 C 12.3333 28.4269 14.4269 26.3333 17 26.3333 ZM 17 36.8333 C 20.2171 36.8333 22.8333 34.2165 22.8333 31 C 22.8333 27.7835 20.2165 25.1667 17 25.1667 C 13.7835 25.1667 11.1667 27.7835 11.1667 31 C 11.1667 34.2165 13.7835 36.8333 17 36.8333 ZM 43.8702 52.2736 L 40.4519 52.2736 C 39.9387 52.2736 39.532 51.8608 39.532 51.3616 C 39.532 50.8624 39.9484 50.4496 40.4519 50.4496 L 43.8702 50.4496 C 44.3835 50.4496 44.7902 50.8624 44.7902 51.3616 C 44.7902 51.8608 44.3835 52.2736 43.8702 52.2736 ZM 36.9174 52.1008 C 36.9174 52.744 36.3944 53.2624 35.7456 53.2624 L 34.2447 53.2624 C 33.5959 53.2624 33.0729 52.744 33.0729 52.1008 L 33.0729 50.6128 C 33.0729 49.9696 33.5959 49.4512 34.2447 49.4512 L 35.7456 49.4512 C 36.3944 49.4512 36.9174 49.9696 36.9174 50.6128 L 36.9174 52.1008 ZM 29.5384 52.2736 L 26.1201 52.2736 C 25.6068 52.2736 25.2001 51.8608 25.2001 51.3616 C 25.2001 50.8624 25.6165 50.4496 26.1201 50.4496 L 29.5384 50.4496 C 30.0516 50.4496 30.4584 50.8624 30.4584 51.3616 C 30.4584 51.8608 30.0516 52.2736 29.5384 52.2736 ZM 30.6036 9.208 L 39.3964 9.208 C 39.5901 9.208 39.745 9.3616 39.745 9.5536 C 39.745 9.7456 39.5901 9.8992 39.3964 9.8992 L 30.6036 9.8992 C 30.4099 9.8992 30.255 9.7456 30.255 9.5536 C 30.255 9.3616 30.4099 9.208 30.6036 9.208 ZM 47.0949 7 L 22.9051 7 C 21.2976 7 20 8.2864 20 9.88 L 20 15 L 21.5 15 L 21.501 12.232 L 48.499 12.232 L 48.499 47.7904 L 21.501 47.7904 L 21.5 46 L 20 46 L 20 52.12 C 20 53.7136 21.2976 55 22.9051 55 L 47.0949 55 C 48.7024 55 50 53.7136 50 52.12 L 50 9.88 C 50 8.2864 48.7024 7 47.0949 7 Z" fill="#91a5b8"/>		</g>	</g>	<g id="Layer%201">	</g></svg>