<?xml version="1.0" standalone="no"?><!-- Generator: Adobe Fireworks CS6, Export SVG Extension by Aaron Beall (http://fireworks.abeall.com) . Version: 0.6.1  --><!DOCTYPE svg PUBLIC "-//W3C//DTD SVG 1.1//EN" "http://www.w3.org/Graphics/SVG/1.1/DTD/svg11.dtd"><svg id="f-icon-2-Page%201" viewBox="0 0 77 91" style="background-color:#ffffff00" version="1.1"	xmlns="http://www.w3.org/2000/svg" xmlns:xlink="http://www.w3.org/1999/xlink" xml:space="preserve"	x="0px" y="0px" width="77px" height="91px">	<g id="Background">		<path opacity="0.502" d="M 67.1876 34.6761 C 79.3268 38.188 78.5807 52.7086 67.0021 59.1089 C 55.4234 65.5092 35.6526 85.4846 33.0248 87.0111 C 30.3969 88.5377 8.0122 97.9296 3.1696 71.6975 C -1.6731 45.4655 2.0109 26.8844 2.4953 23.1107 C 2.7579 21.0648 4.2699 0.7068 12.625 1 C 34 1.75 28.125 23.375 67.1876 34.6761 Z" fill="#b3ff99"/>		<g id="iconfinder_price_1814073">			<path id="Fill-129" d="M 51.925 10 C 50.525 10 48.325 10.9 47.325 11.9 L 29.525 29.7 C 28.825 30.4 28.825 31.5 29.525 32.2 L 42.825 45.5 C 43.525 46.2 44.725 46.2 45.325 45.5 L 63.125 27.7 C 64.125 26.7 65.025 24.6 65.025 23.1 L 65.025 11.7 C 65.025 10.7 64.225 9.9 63.225 9.9 L 51.925 9.9 L 51.925 10 L 51.925 10 ZM 44.125 49.1 C 42.825 49.1 41.625 48.6 40.725 47.7 L 27.425 34.4 C 25.525 32.5 25.525 29.5 27.425 27.6 L 45.225 9.8 C 46.825 8.2 49.725 7 51.925 7 L 63.325 7 C 65.925 7 68.125 9.2 68.125 11.8 L 68.125 23.2 C 68.125 25.4 66.925 28.3 65.325 29.9 L 47.525 47.7 C 46.625 48.6 45.425 49.1 44.125 49.1 L 44.125 49.1 L 44.125 49.1 Z" fill="#8ca5ba"/>			<path id="Fill-130" d="M 56.125 15.9 C 54.425 15.9 53.025 17.3 53.025 19 C 53.025 20.7 54.425 22.1 56.125 22.1 C 57.825 22.1 59.225 20.7 59.225 19 C 59.225 17.3 57.825 15.9 56.125 15.9 L 56.125 15.9 L 56.125 15.9 ZM 56.125 24.9 C 52.925 24.9 50.225 22.3 50.225 19 C 50.225 15.8 52.825 13.1 56.125 13.1 C 59.325 13.1 62.025 15.7 62.025 19 C 62.025 22.2 59.425 24.9 56.125 24.9 L 56.125 24.9 L 56.125 24.9 Z" fill="#8ca5ba"/>		</g>	</g>	<g id="Layer%201">	</g></svg>