<svg xmlns="http://www.w3.org/2000/svg" xmlns:xlink="http://www.w3.org/1999/xlink" id="f-icon-2-Page%201" viewBox="0 0 77 91" style="background-color:#ffffff00" version="1.1" xml:space="preserve" x="0px" y="0px" width="77px" height="91px">	<g id="Background">		<path xmlns="http://www.w3.org/2000/svg" d="M 67.1876 34.6761 C 79.3268 38.188 78.5807 52.7086 67.0021 59.1089 C 55.4234 65.5092 35.6526 85.4846 33.0248 87.0111 C 30.3969 88.5377 8.0122 97.9296 3.1696 71.6975 C -1.6731 45.4655 2.0109 26.8844 2.4953 23.1107 C 2.7579 21.0648 4.2699 0.7068 12.625 1 C 34 1.75 28.125 23.375 67.1876 34.6761 Z" fill="#FFB1FF" opacity="0.3"/>		<g id="iconfinder_React.js_logo_1174949">			<path id="st0" d="M 46.5411 30.951 C 46.5411 28.5107 48.5414 26.5325 51.0089 26.5325 C 53.4764 26.5325 55.4767 28.5107 55.4767 30.951 C 55.4767 33.3914 53.4764 35.3696 51.0089 35.3696 C 48.5414 35.3696 46.5411 33.3914 46.5411 30.951 Z" fill="#91a5b8"/>			<path d="M 51.0089 23.0293 C 45.2506 23.0293 39.5546 23.8566 35.3895 25.2914 C 30.3877 27.0166 28.1449 29.3755 28.1449 30.951 C 28.1449 32.5882 30.5568 35.1672 35.8434 36.954 C 39.7237 38.2655 44.9747 38.9608 51.0089 38.9608 C 56.6693 38.9608 61.947 38.2567 65.8718 36.9628 C 71.3631 35.1584 73.8729 32.5794 73.8729 30.951 C 73.8729 30.1149 73.2321 29.129 72.0662 28.1696 C 70.7223 27.0606 68.7643 26.0483 66.4236 25.2474 C 62.214 23.8214 56.7405 23.0293 51.0089 23.0293 L 51.0089 23.0293 ZM 51.0089 41.0733 C 44.7344 41.0733 39.252 40.3428 35.1492 38.952 C 32.4881 38.0542 30.2275 36.8572 28.6166 35.4929 C 26.9078 34.0493 26 32.4738 26 30.951 C 26 28.0288 29.2396 25.1681 34.6775 23.3021 C 39.1274 21.7706 44.9302 20.9168 51 20.9168 C 56.963 20.9168 62.6857 21.7442 67.1089 23.2581 C 69.6988 24.1383 71.8793 25.2826 73.4279 26.55 C 75.11 27.9408 76 29.4635 76 30.951 C 76 33.9877 72.3777 37.0596 66.5393 38.9697 C 62.4098 40.3251 56.8918 41.0733 51.0089 41.0733 L 51.0089 41.0733 Z" fill="#91a5b8"/>			<path d="M 43.1057 26.4884 L 44.0313 27.0166 C 41.1566 31.9457 39.0295 37.2357 38.2108 41.531 C 37.2229 46.6802 38.1751 49.7785 39.5457 50.5619 C 39.8839 50.7555 40.3289 50.8611 40.8718 50.8611 C 42.6429 50.8611 45.4286 49.7521 48.6504 46.9706 C 51.7387 44.3036 54.9694 40.1491 57.9865 34.9823 C 60.8167 30.1325 62.828 25.2562 63.6647 21.2513 C 64.8306 15.6444 63.8248 12.2116 62.392 11.3931 C 61.6622 10.9794 60.4785 11.0322 59.0545 11.5515 C 57.408 12.15 55.5479 13.3207 53.6789 14.9314 C 50.3236 17.8185 46.8971 22.1139 44.0313 27.0254 L 43.1057 26.4884 L 43.1057 26.4884 ZM 40.8718 52.9736 C 39.9641 52.9736 39.163 52.78 38.4867 52.3927 C 35.9324 50.9315 35.0424 46.7242 36.1193 41.1349 C 37.0004 36.5491 39.1541 31.1623 42.189 25.9603 C 45.1705 20.8552 48.7483 16.3662 52.2816 13.3295 C 54.3464 11.5515 56.4379 10.2488 58.3247 9.5622 C 60.3806 8.8141 62.1606 8.8141 63.4599 9.5534 C 66.121 11.0674 67.0021 15.7148 65.7561 21.6649 C 64.875 25.8899 62.7747 30.9863 59.8377 36.0298 C 56.7049 41.399 53.3229 45.7296 50.0566 48.555 C 47.9384 50.3858 45.7579 51.7237 43.7643 52.4191 C 42.723 52.7888 41.744 52.9736 40.8718 52.9736 L 40.8718 52.9736 Z" fill="#91a5b8"/>			<path d="M 44.0402 34.9911 C 46.9238 39.9203 50.5016 44.3829 53.848 47.2259 C 57.8619 50.6411 61.0481 51.3804 62.4276 50.5883 C 63.8604 49.7697 64.9106 46.4161 63.8248 40.9941 C 63.0238 37.0156 61.0036 32.1745 57.9776 27.0078 C 55.1385 22.1579 51.8722 17.9945 48.7839 15.2835 C 44.4585 11.4811 40.9519 10.6273 39.519 11.4459 C 38.7892 11.8595 38.2463 12.907 37.9883 14.3857 C 37.6945 16.0933 37.7835 18.2762 38.2642 20.6791 C 39.1185 25.0009 41.1655 30.0797 44.0402 34.9911 L 44.0402 34.9911 L 44.0402 34.9911 ZM 61.146 53 C 58.7252 53 55.6547 51.5565 52.4507 48.8279 C 48.8729 45.7824 45.2328 41.2494 42.189 36.0474 L 42.189 36.0474 C 39.1987 30.9422 37.0627 25.6346 36.1638 21.084 C 35.6387 18.4258 35.5408 15.9877 35.879 14.0248 C 36.2527 11.886 37.1339 10.3632 38.4421 9.6151 C 41.0943 8.0923 45.6066 9.6591 50.199 13.6992 C 53.4564 16.5598 56.874 20.908 59.8199 25.9427 C 62.9615 31.3119 65.0708 36.3731 65.9074 40.5804 C 66.4503 43.309 66.5393 45.844 66.1566 47.9037 C 65.7472 50.0953 64.8216 51.6533 63.4866 52.4191 C 62.8192 52.8064 62.0271 53 61.146 53 L 61.146 53 Z" fill="#91a5b8"/>		</g>	</g>	<g id="Layer%201">	</g></svg>