<?xml version="1.0" standalone="no"?><!-- Generator: Adobe Fireworks CS6, Export SVG Extension by Aaron Beall (http://fireworks.abeall.com) . Version: 0.6.1  --><!DOCTYPE svg PUBLIC "-//W3C//DTD SVG 1.1//EN" "http://www.w3.org/Graphics/SVG/1.1/DTD/svg11.dtd"><svg id="react-flutter-Page%201" viewBox="0 0 102 97" style="background-color:#ffffff00" version="1.1"	xmlns="http://www.w3.org/2000/svg" xmlns:xlink="http://www.w3.org/1999/xlink" xml:space="preserve"	x="0px" y="0px" width="102px" height="97px">	<g id="Background">		<path opacity="0.302" d="M 61.2288 8.4578 C 78.6276 -15.4295 86.2235 17.5506 89.5056 30.3714 C 92.2222 40.9832 94.1403 70.0712 93.992 73.6884 C 93.8437 77.3057 89.4033 105.0362 60.6103 94.7095 C 23.1826 81.286 -7.0875 52.329 2.941 37.3059 C 12.931 22.3407 37.0897 41.5993 61.2288 8.4578 Z" fill="#d9d900"/>		<g id="iconfinder_React.js_logo_1174949">			<path id="st0" d="M 23.0762 23.4566 C 23.0762 21.2936 24.8364 19.5401 27.0078 19.5401 C 29.1793 19.5401 30.9395 21.2936 30.9395 23.4566 C 30.9395 25.6196 29.1793 27.3731 27.0078 27.3731 C 24.8364 27.3731 23.0762 25.6196 23.0762 23.4566 Z" fill="#86a6bc"/>			<path d="M 27.0078 16.435 C 21.9405 16.435 16.9281 17.1684 13.2627 18.4401 C 8.8612 19.9692 6.8875 22.0601 6.8875 23.4566 C 6.8875 24.9077 9.01 27.1936 13.6622 28.7774 C 17.0769 29.9399 21.6978 30.5562 27.0078 30.5562 C 31.989 30.5562 36.6333 29.9321 40.0872 28.7852 C 44.9195 27.1858 47.1282 24.8999 47.1282 23.4566 C 47.1282 22.7154 46.5643 21.8416 45.5383 20.9913 C 44.3556 20.0082 42.6326 19.111 40.5728 18.4011 C 36.8683 17.1372 32.0516 16.435 27.0078 16.435 L 27.0078 16.435 ZM 27.0078 32.4286 C 21.4863 32.4286 16.6618 31.7811 13.0513 30.5484 C 10.7095 29.7526 8.7202 28.6916 7.3026 27.4823 C 5.7989 26.2028 5 24.8063 5 23.4566 C 5 20.8664 7.8508 18.3309 12.6362 16.6769 C 16.5521 15.3194 21.6586 14.5626 27 14.5626 C 32.2474 14.5626 37.2834 15.296 41.1759 16.6379 C 43.455 17.418 45.3738 18.4323 46.7366 19.5557 C 48.2168 20.7884 49 22.1381 49 23.4566 C 49 26.1482 45.8124 28.871 40.6746 30.564 C 37.0406 31.7655 32.1848 32.4286 27.0078 32.4286 L 27.0078 32.4286 Z" fill="#86a6bc"/>			<path d="M 20.053 19.5011 L 20.8676 19.9692 C 18.3378 24.3382 16.466 29.0271 15.7455 32.8343 C 14.8761 37.3983 15.7141 40.1446 16.9203 40.8389 C 17.2179 41.0106 17.6095 41.1042 18.0872 41.1042 C 19.6458 41.1042 22.0972 40.1212 24.9324 37.6558 C 27.65 35.2919 30.4931 31.6094 33.1481 27.0298 C 35.6387 22.731 37.4087 18.4089 38.1449 14.8591 C 39.1709 9.8894 38.2859 6.8467 37.0249 6.1211 C 36.3827 5.7544 35.341 5.8012 34.0879 6.2615 C 32.639 6.7921 31.0021 7.8297 29.3574 9.2574 C 26.4048 11.8164 23.3895 15.6237 20.8676 19.977 L 20.053 19.5011 L 20.053 19.5011 ZM 18.0872 42.9766 C 17.2884 42.9766 16.5835 42.805 15.9883 42.4617 C 13.7405 41.1666 12.9573 37.4374 13.905 32.4832 C 14.6803 28.4185 16.5756 23.6439 19.2464 19.033 C 21.8701 14.508 25.0185 10.5291 28.1278 7.8375 C 29.9448 6.2615 31.7853 5.1069 33.4457 4.4983 C 35.2549 3.8352 36.8213 3.8352 37.9648 4.4906 C 40.3065 5.8324 41.0819 9.9518 39.9854 15.2258 C 39.21 18.9706 37.3617 23.4878 34.7771 27.9582 C 32.0203 32.7173 29.0441 36.5558 26.1698 39.0601 C 24.3058 40.6829 22.387 41.8687 20.6326 42.4851 C 19.7163 42.8128 18.8547 42.9766 18.0872 42.9766 L 18.0872 42.9766 Z" fill="#86a6bc"/>			<path d="M 20.8754 27.0376 C 23.413 31.4066 26.5614 35.3621 29.5062 37.8821 C 33.0385 40.9091 35.8423 41.5645 37.0562 40.8623 C 38.3172 40.1368 39.2414 37.1643 38.2859 32.3584 C 37.581 28.832 35.8031 24.541 33.1403 19.9614 C 30.6419 15.6627 27.7675 11.9724 25.0498 9.5695 C 21.2435 6.1991 18.1577 5.4424 16.8968 6.1679 C 16.2545 6.5346 15.7768 7.463 15.5497 8.7737 C 15.2912 10.2873 15.3695 12.2221 15.7924 14.352 C 16.5443 18.1826 18.3457 22.6842 20.8754 27.0376 L 20.8754 27.0376 L 20.8754 27.0376 ZM 35.9285 43 C 33.7982 43 31.0961 41.7205 28.2766 39.302 C 25.1282 36.6026 21.9249 32.5847 19.2464 27.9738 L 19.2464 27.9738 C 16.6148 23.4488 14.7351 18.7443 13.9441 14.7108 C 13.482 12.3547 13.3959 10.1936 13.6935 8.4538 C 14.0224 6.558 14.7978 5.2083 15.9491 4.5452 C 18.283 3.1955 22.2538 4.5842 26.2951 8.1652 C 29.1616 10.7007 32.1691 14.5548 34.7615 19.0174 C 37.5262 23.7765 39.3823 28.2625 40.1185 31.9917 C 40.5963 34.4103 40.6746 36.6572 40.3378 38.4828 C 39.9776 40.4254 39.163 41.8063 37.9883 42.4851 C 37.4009 42.8284 36.7038 43 35.9285 43 L 35.9285 43 Z" fill="#86a6bc"/>		</g>		<path id="iconfinder_flutter_4691465%20%281%29" d="M 23.041 74.084 L 16.57 80.541 L 23.04 87.011 L 30.4 87.011 L 23.94 80.543 L 30.4 74.083 L 23.029 74.083 L 23.041 74.084 ZM 23.014 63 L 11 75 L 14.7 78.7 L 30.384 63.012 L 23.027 63.012 L 23.014 63 Z" fill="#86a6bc"/>	</g>	<g id="Layer%201">	</g></svg>