<?xml version="1.0" standalone="no"?><!-- Generator: Adobe Fireworks CS6, Export SVG Extension by Aaron Beall (http://fireworks.abeall.com) . Version: 0.6.1  --><!DOCTYPE svg PUBLIC "-//W3C//DTD SVG 1.1//EN" "http://www.w3.org/Graphics/SVG/1.1/DTD/svg11.dtd"><svg id="responsive-Page%201" viewBox="0 0 102 97" style="background-color:#ffffff00" version="1.1"	xmlns="http://www.w3.org/2000/svg" xmlns:xlink="http://www.w3.org/1999/xlink" xml:space="preserve"	x="0px" y="0px" width="102px" height="97px">	<g id="Background">		<path opacity="0.302" d="M 89.9019 34.0305 C 114.2163 16.3842 80.6466 8.6803 67.5965 5.3514 C 56.795 2.5962 27.1869 0.6509 23.505 0.8013 C 19.8231 0.9517 -8.4033 5.4552 2.108 34.6578 C 15.7716 72.618 45.2464 103.3187 60.538 93.1475 C 75.7708 83.0155 56.1679 58.5131 89.9019 34.0305 Z" fill="#006dd9"/>		<g id="respo">			<path id="path4" d="M 95 35 L 53 35 C 51.3431 35 50 36.3431 50 38 L 50 70 C 50 71.6569 51.3431 73 53 73 L 66 73 L 66 77.28 L 63.68 78.05 C 63.2727 78.1876 62.9989 78.5701 63 79 L 63 81 L 61 81 L 61 83 L 78 83 L 78 81 L 65 81 L 65 79.72 L 67.16 79 L 78 79 L 78 77 L 68 77 L 68 73 L 78 73 L 78 71 L 53 71 C 52.4477 71 52 70.5523 52 70 L 52 64 L 78 64 L 78 62 L 52 62 L 52 38 C 52 37.4477 52.4477 37 53 37 L 95 37 C 95.5523 37 96 37.4477 96 38 L 96 53 L 98 53 L 98 38 C 98 36.3431 96.6569 35 95 35 L 95 35 Z" fill="#8ca5ba"/>			<path id="path6" d="M 96 60 L 82 60 L 82 57 L 96 57 L 96 60 ZM 96 73 L 82 73 L 82 62 L 96 62 L 96 73 ZM 96 81 L 82 81 L 82 78 L 96 78 L 96 81 ZM 96 55 L 82 55 C 80.8954 55 80 55.8954 80 57 L 80 81 C 80 82.1046 80.8954 83 82 83 L 96 83 C 97.1046 83 98 82.1046 98 81 L 98 57 C 98 55.8954 97.1046 55 96 55 L 96 55 Z" fill="#8ca5ba"/>		</g>	</g>	<g id="Layer%201">	</g></svg>