<?xml version="1.0" standalone="no"?><!-- Generator: Adobe Fireworks CS6, Export SVG Extension by Aaron Beall (http://fireworks.abeall.com) . Version: 0.6.1  --><!DOCTYPE svg PUBLIC "-//W3C//DTD SVG 1.1//EN" "http://www.w3.org/Graphics/SVG/1.1/DTD/svg11.dtd"><svg id="slider-bg-1-Page%201" viewBox="0 0 1920 961" style="background-color:#ffffff00" version="1.1"	xmlns="http://www.w3.org/2000/svg" xmlns:xlink="http://www.w3.org/1999/xlink" xml:space="preserve"	x="0px" y="0px" width="1920px" height="961px">	<g id="Background">		<path opacity="0.8706" d="M 746 -25 C 746 -25 639 184 682 338 C 725 492 825 552 1055 584 C 1285 616 1701 791 1751 808 C 1801 825 1942 866 1993 838 C 2044 810 2010 -33 2010 -33 L 746 -25 Z" fill="#00c6df"/>		<path opacity="0.749" d="M 1151 -8 C 1151 -8 824 117 763 249 C 702 381 808 472 913 521 C 1018 570 1351 742 1478 856 C 1605 970 1808 909 1888 727 C 1968 545 1968 544 1968 544 L 1968 -19 L 1151 -8 Z" fill="#b7d810"/>		<path opacity="0.502" d="M 1237 -3 C 1237 -3 970 84 862 226 C 754 368 908 476 978 512 C 1048 548 1409 732 1498 811 C 1587 890 1771 992 1924 803 L 1924 -1 L 1237 -3 Z" fill="#ff7556"/>	</g>	<g id="Layer%201">	</g></svg>