<?xml version="1.0" encoding="iso-8859-1"?>
<!-- Generator: Adobe Illustrator 19.0.0, SVG Export Plug-In . SVG Version: 6.00 Build 0)  -->
<svg version="1.1" id="Capa_1" xmlns="http://www.w3.org/2000/svg" xmlns:xlink="http://www.w3.org/1999/xlink" x="0px" y="0px"
	 viewBox="0 0 464.099 464.099" style="enable-background:new 0 0 464.099 464.099;" xml:space="preserve">
<g>
	<g>
		<path d="M464,277.812c0-61.6-25.376-142.152-96-171.064V75.884l21-16.8c1.897-1.519,3.001-3.818,3-6.248v-44.8
			c0-4.418-3.582-8-8-8h-24c-2.122,0-4.156,0.844-5.656,2.344L344,12.724L333.656,2.38c-1.5-1.5-3.534-2.344-5.656-2.344h-32
			c-2.122,0-4.156,0.844-5.656,2.344L280,12.724L269.656,2.38c-1.5-1.5-3.534-2.344-5.656-2.344h-24c-4.418,0-8,3.582-8,8v44.8
			c-0.001,2.43,1.103,4.729,3,6.248l21,16.8v30.864c-70.624,28.912-96,109.496-96,171.064c-0.15,14.445,2.094,28.816,6.64,42.528
			c-3.44-0.192-6.904-0.304-10.36-0.304H136c0-4.418-3.582-8-8-8H64c-4.418,0-8,3.582-8,8H0v16h56v80H0v16h56c0,4.418,3.582,8,8,8
			h64c4.418,0,8-3.582,8-8v-3.048l59.728,24.8c32.56,13.298,68.961,13.702,101.808,1.128l123.584-47.128
			c7.321-2.782,13.213-8.397,16.344-15.576c4.806-10.723,2.767-23.277-5.184-31.928C453.814,338.37,465.299,308.509,464,277.812z
			 M120,424.036H72v-96h48V424.036z M248,48.996v-32.96h12.688l13.656,13.656c3.124,3.123,8.188,3.123,11.312,0l13.656-13.656
			h25.376l13.656,13.656c3.124,3.123,8.188,3.123,11.312,0l13.656-13.656H376v32.96l-18.808,15.04h-90.4L248,48.996z M352,80.036v24
			h-80v-24H352z M422.792,385.764c-1.413,3.266-4.084,5.825-7.408,7.096L291.8,439.98c-29.039,11.124-61.223,10.778-90.016-0.968
			L136,411.66v-75.624h20.28c26.526,0.031,52.684,6.206,76.424,18.04c7.839,3.913,16.479,5.953,25.24,5.96H320
			c6.627,0.043,11.965,5.45,11.922,12.077c-0.036,5.551-3.875,10.354-9.282,11.611c-1.048,0.096-2.072,0.312-3.136,0.312H224v16
			h95.504c0.168,0,0.328,0,0.496,0c0.16,0,0.312-0.048,0.48-0.048c6.349-0.102,12.619-1.431,18.464-3.912l66.888-28.392
			c3.186-1.36,6.79-1.36,9.976,0c3.314,1.399,5.914,4.088,7.2,7.448C424.367,378.562,424.289,382.393,422.792,385.764z
			 M418.024,351.684c-6.12-1.64-12.611-1.193-18.448,1.272l-51.872,22.024c0.151-0.975,0.25-1.958,0.296-2.944
			c0-15.464-12.536-28-28-28h-62.056c-6.278-0.009-12.469-1.472-18.088-4.272c-17.363-8.633-35.96-14.522-55.128-17.456
			c-5.979-14.061-8.952-29.218-8.728-44.496c0-57.6,23.528-133.208,89.6-157.776h92.8c66.072,24.568,89.6,100.176,89.6,157.776
			C449.344,305.644,438.382,332.659,418.024,351.684z"/>
	</g>
</g>
<g>
	<g>
		<rect x="88" y="392.036" width="16" height="16"/>
	</g>
</g>
<g>
	<g>
		<path d="M328.992,229.268l-28.92-9.64c-3.119-1.023-4.819-4.381-3.796-7.5c0.803-2.448,3.091-4.1,5.668-4.092h20.112
			c3.284,0.004,5.944,2.668,5.944,5.952v5.248h16v-5.248c-0.009-12.117-9.827-21.939-21.944-21.952H320v-16h-16v16h-2.056
			c-12.119-0.008-21.951,9.81-21.959,21.929c-0.006,9.458,6.048,17.856,15.023,20.839l28.92,9.64c3.119,1.023,4.819,4.381,3.796,7.5
			c-0.803,2.448-3.091,4.1-5.668,4.092h-20.112c-3.284-0.004-5.944-2.668-5.944-5.952v-5.248h-16v5.248
			c0.009,12.117,9.827,21.939,21.944,21.952H304v16h16v-16h2.056c12.119,0.008,21.951-9.81,21.959-21.929
			C344.022,240.649,337.967,232.251,328.992,229.268z"/>
	</g>
</g>
<g>
	<g>
		<path d="M312,144.036c-48.601,0-88,39.399-88,88c0.057,48.577,39.423,87.943,88,88c48.601,0,88-39.399,88-88
			C400,183.435,360.601,144.036,312,144.036z M312,304.036c-39.764,0-72-32.236-72-72c0.044-39.746,32.254-71.956,72-72
			c39.765,0,72,32.235,72,72C384,271.801,351.765,304.036,312,304.036z"/>
	</g>
</g>
<g>
</g>
<g>
</g>
<g>
</g>
<g>
</g>
<g>
</g>
<g>
</g>
<g>
</g>
<g>
</g>
<g>
</g>
<g>
</g>
<g>
</g>
<g>
</g>
<g>
</g>
<g>
</g>
<g>
</g>
</svg>
